<svg version="1.1" id="Layer_1" xmlns="http://www.w3.org/2000/svg" xmlns:xlink="http://www.w3.org/1999/xlink" x="0px" y="0px"
	 width="100%" viewBox="0 0 512 512" enable-background="new 0 0 512 512" xml:space="preserve">
<path fill="#ffff" opacity="1.000000" stroke="none" 
	d="
M1.000000,439.468658 
	C4.661983,438.955170 8.337842,439.094604 11.982540,438.820190 
	C16.851744,438.453552 18.371199,440.689758 18.329544,445.302490 
	C18.189728,460.784973 18.314228,476.269806 18.318150,491.753723 
	C18.319891,498.632080 20.272486,500.666321 27.132391,500.678894 
	C37.954472,500.698700 48.776649,500.675110 59.598770,500.658173 
	C66.982643,500.646637 67.122665,500.770264 67.137222,508.084198 
	C67.139877,509.415375 67.078545,510.746643 67.023376,512.538940 
	C45.068966,513.000000 23.137930,513.000000 1.000000,513.000000 
	C1.000000,488.646149 1.000000,464.291748 1.000000,439.468658 
z"/>
<path fill="#ffff" opacity="1.000000" stroke="none" 
	d="
M449.468658,513.000000 
	C447.966339,497.998322 447.081360,500.968628 459.746552,500.709167 
	C469.067352,500.518188 478.395172,500.683441 487.719818,500.662109 
	C494.268494,500.647125 495.900635,499.011810 495.892273,492.330475 
	C495.874390,478.010590 495.757599,463.690735 495.767578,449.370911 
	C495.774414,439.535950 495.838562,439.521332 505.590759,439.045837 
	C507.751404,438.940491 509.919067,438.979126 512.541748,438.975739 
	C513.000000,463.588226 513.000000,488.176422 513.000000,513.000000 
	C491.979706,513.000000 470.958496,513.000000 449.468658,513.000000 
z"/>
<path fill="#ffff" opacity="1.000000" stroke="none" 
	d="
M66.531342,1.000000 
	C67.203743,12.434426 67.203735,12.440131 56.134975,12.430861 
	C46.819519,12.423059 37.503983,12.367956 28.188644,12.393518 
	C20.439823,12.414781 18.348734,14.492868 18.352152,22.094034 
	C18.359255,37.897026 18.232714,53.702888 18.514278,69.501282 
	C18.601612,74.401482 16.665697,76.092316 12.127411,75.899780 
	C8.651534,75.752319 5.167417,75.799103 1.343482,75.879745 
	C1.000000,51.077808 1.000000,26.155619 1.000000,1.000000 
	C22.687002,1.000000 44.374844,1.000000 66.531342,1.000000 
z"/>
<path fill="#ffff" opacity="1.000000" stroke="none" 
	d="
M513.000000,75.531342 
	C509.080200,74.784721 505.064972,75.800613 501.098694,75.617691 
	C496.927002,75.425301 495.666718,73.751495 495.695129,69.831917 
	C495.810822,53.878773 495.745850,37.924274 495.736206,21.970282 
	C495.731079,13.505881 495.312317,12.852762 486.853180,12.618604 
	C476.568268,12.333904 466.271973,12.474804 455.980804,12.397638 
	C448.569305,12.342063 448.565857,12.317250 448.654114,4.890236 
	C448.665924,3.894183 448.735809,2.898820 448.889404,1.451569 
	C470.265961,1.000000 491.531952,1.000000 513.000000,1.000000 
	C513.000000,25.687193 513.000000,50.374939 513.000000,75.531342 
z"/>
<path fill="#ffff" opacity="1.000000" stroke="none" 
	d="
M143.330536,53.242958 
	C169.947403,37.186996 198.303406,26.886284 228.742508,22.914587 
	C276.846710,16.637951 322.432037,25.089485 364.449524,49.372845 
	C427.759552,85.961876 467.938232,140.366898 482.716858,211.911606 
	C495.315369,272.902374 483.312866,330.036743 448.856537,382.164948 
	C434.871918,403.321960 418.097107,421.925415 397.680298,437.112030 
	C396.211945,438.204254 394.804047,439.493225 393.157593,440.201050 
	C391.128326,441.073456 388.938324,444.404388 386.739471,441.356323 
	C384.566772,438.344604 383.433563,434.588562 387.052216,431.476318 
	C392.227386,427.025391 397.623993,422.823822 402.680664,418.244751 
	C435.685272,388.357361 458.195038,352.049713 468.722778,308.667145 
	C484.595245,243.259933 471.995300,182.980804 434.018860,128.101166 
	C402.924469,83.166801 360.935883,52.745296 307.501648,39.535954 
	C238.471100,22.471085 176.848892,39.027065 122.145432,82.916458 
	C83.716805,113.748322 58.157234,153.547302 44.865555,200.968277 
	C38.288280,224.434143 36.985703,248.471252 39.120552,272.767395 
	C43.105469,318.118652 59.703201,358.353699 88.597511,393.292053 
	C118.332481,429.246948 155.426926,454.835419 200.479126,467.776459 
	C239.999481,479.128479 279.764252,479.080414 319.119843,466.664124 
	C338.546356,460.535248 357.174927,452.421234 373.602753,439.999054 
	C375.305145,438.711792 377.117493,438.250183 379.543121,438.869965 
	C379.089294,440.857483 378.336090,442.892578 380.758240,444.339264 
	C384.137299,446.357391 382.657349,448.395660 380.346222,450.127777 
	C373.922546,454.942322 366.841980,458.705719 359.802948,462.474182 
	C322.503235,482.443176 282.531311,490.214386 240.564575,487.018524 
	C198.010956,483.777954 159.649460,468.723846 125.197693,443.606598 
	C83.000328,412.842438 52.022141,373.486572 36.921318,323.230469 
	C14.526797,248.700699 26.796028,179.653351 73.292816,117.047668 
	C92.370338,91.360710 115.540596,69.996170 143.330536,53.242958 
z"/>
<path fill="#ffff" opacity="1.000000" stroke="none" 
	d="
M418.858673,125.156586 
	C440.957642,153.304642 455.881348,184.469925 462.227997,219.371429 
	C473.298889,280.252319 458.818542,335.363678 421.257568,383.817566 
	C386.638763,428.475983 341.096924,456.796356 284.651794,464.832031 
	C239.683197,471.233887 197.175812,462.573883 157.957626,439.011658 
	C113.372368,412.224915 80.290009,375.538269 61.204216,326.846313 
	C50.026146,298.328644 45.965988,268.781494 48.434353,238.166611 
	C53.119282,180.059708 80.616364,133.936188 123.067924,95.907082 
	C150.627548,71.218506 182.757370,54.740353 219.235306,47.559437 
	C274.856781,36.610004 325.657562,48.565792 371.928345,80.765747 
	C389.678986,93.118462 405.286499,107.823097 418.858673,125.156586 
M98.240868,369.276581 
	C134.413895,415.472046 179.623489,446.355286 239.334030,452.921844 
	C258.719788,455.053711 278.042938,454.691681 296.927399,450.130035 
	C346.316742,438.199646 386.262054,411.596832 415.674927,370.112305 
	C448.293243,324.106720 460.388489,273.104156 448.766083,217.565033 
	C436.735687,160.076279 404.040009,116.247025 355.374298,84.584793 
	C315.878601,58.888622 271.904877,51.367512 225.608871,58.690960 
	C188.652298,64.537025 157.032303,82.112000 129.494003,106.766266 
	C108.615669,125.458046 92.008743,147.722626 79.541595,173.002762 
	C63.101833,206.338333 56.670418,241.455917 61.565014,278.229675 
	C65.967766,311.308136 78.801208,341.319153 98.240868,369.276581 
z"/>
<path fill="#ffff" opacity="1.000000" stroke="none" 
	d="
M140.354355,346.658264 
	C153.652100,364.054230 168.983704,378.666351 187.564514,389.782532 
	C190.419769,391.490692 192.695038,391.658264 195.354980,389.944122 
	C200.170898,386.840668 205.412216,384.330200 209.657455,380.429108 
	C208.097717,377.639679 205.734863,377.690887 203.762680,377.038208 
	C196.156387,374.520935 191.069275,367.345093 196.567993,359.068329 
	C198.576645,356.044891 199.690231,352.442352 201.448761,349.233643 
	C204.149490,344.305786 206.854858,343.593292 211.656555,346.244843 
	C217.451828,349.445099 218.681808,349.130035 220.365356,342.967743 
	C223.668335,330.877747 226.115005,318.673645 223.734650,306.028381 
	C222.331772,298.575806 218.736862,295.532318 211.116409,295.269592 
	C202.767380,294.981689 194.967728,297.214874 187.294083,300.105774 
	C183.086014,301.691101 178.932648,303.421387 174.750275,305.075287 
	C171.945587,306.184357 169.158127,306.970703 167.684952,303.221252 
	C166.343079,299.805969 167.584808,297.275085 170.865112,295.943542 
	C181.824005,291.495056 192.817230,287.145203 204.668930,285.558136 
	C207.644180,285.159729 210.526657,284.684845 213.581284,285.230438 
	C226.839767,287.598511 233.560547,295.074036 234.309464,308.659485 
	C235.012085,321.405029 233.621246,333.933411 230.208725,346.232544 
	C227.197845,357.084167 221.908020,361.269592 212.260391,357.213409 
	C208.605301,355.676727 208.163620,358.939606 207.141495,361.012909 
	C206.051331,363.224243 205.425781,365.490479 208.564636,366.795654 
	C210.254501,367.498383 211.917587,368.287323 213.526047,369.160309 
	C221.490204,373.482971 222.787323,381.640411 216.672821,388.265503 
	C213.909073,391.260040 210.361832,393.140564 207.087067,395.417389 
	C205.491287,396.526825 203.587875,397.350739 202.711075,399.750214 
	C211.266861,403.098358 220.011963,405.006958 228.781570,406.419220 
	C252.699463,410.270813 276.549591,409.639343 300.142059,403.850708 
	C303.508606,403.024719 308.756256,403.359589 309.198425,399.263855 
	C309.571228,395.810608 304.743927,394.479553 301.781433,392.770813 
	C299.596832,391.510651 297.518860,390.179199 295.910065,388.196594 
	C290.342285,381.335144 291.805634,374.054047 299.604126,369.980438 
	C300.932159,369.286713 302.316620,368.701874 303.664886,368.045898 
	C306.117798,366.852448 308.647430,365.862885 306.961914,362.151428 
	C305.564789,359.075012 304.235168,357.301880 300.232697,358.491058 
	C292.941223,360.657532 288.967834,358.757629 286.493927,351.726349 
	C280.728363,335.339294 279.980347,318.424072 283.212402,301.497314 
	C285.015839,292.052216 292.005524,287.139496 301.943176,286.616913 
	C316.157166,285.869476 329.155273,290.414246 341.899750,295.932037 
	C343.991852,296.837860 346.098816,298.022003 346.271210,300.881714 
	C346.571564,305.865112 343.246490,308.157562 338.614380,305.986389 
	C328.324432,301.163147 317.930206,296.654999 306.320496,296.333893 
	C296.454865,296.061005 293.150726,298.509918 291.875671,308.105072 
	C290.259033,320.270752 291.483307,332.375244 294.558197,344.223877 
	C295.802094,349.017090 297.889465,349.545776 302.264099,346.992188 
	C307.909424,343.696930 309.972931,344.273224 312.797150,350.146973 
	C314.673492,354.049316 316.462799,357.998322 318.145477,361.987854 
	C320.776794,368.226624 319.430511,371.764374 313.510986,375.297241 
	C310.684418,376.984192 307.076080,377.149109 304.705261,379.807373 
	C305.024963,382.297729 307.169830,382.802002 308.820038,383.764069 
	C312.994385,386.197601 317.313507,388.401703 321.366333,391.020111 
	C326.866272,394.573578 327.322601,399.123108 322.985382,403.958954 
	C316.910492,410.732208 308.494415,412.696045 300.215881,414.386719 
	C266.676208,421.236359 233.263199,421.411102 200.795212,409.343292 
	C184.725067,403.370300 171.207764,392.748749 158.551178,381.299957 
	C143.249466,367.458466 130.118958,351.813599 120.354408,333.507324 
	C118.619438,330.254700 117.315094,326.848419 116.239746,323.335175 
	C115.500076,320.918579 115.311981,318.571655 117.920036,317.243774 
	C120.885857,315.733765 122.644341,317.696228 123.986588,319.963470 
	C127.634613,326.125427 131.133682,332.375977 134.814102,338.518127 
	C136.437531,341.227417 138.357010,343.759308 140.354355,346.658264 
z"/>
<path fill="#ffff" opacity="1.000000" stroke="none" 
	d="
M174.656601,220.426514 
	C171.296402,218.239716 167.904556,216.654541 165.999222,213.281235 
	C164.591827,210.789520 163.899918,208.123184 166.070648,205.877808 
	C168.477829,203.387894 171.091324,204.864334 173.245483,206.484665 
	C179.914383,211.500931 186.776367,216.187622 194.356400,219.733505 
	C200.311615,222.519302 206.484772,224.297318 213.172897,223.827271 
	C220.427582,223.317398 224.865311,219.778152 225.517670,212.530579 
	C226.908737,197.075912 223.832504,182.060471 220.066635,167.174622 
	C219.493195,164.907928 218.199982,164.630753 215.935928,165.182968 
	C206.590530,167.462372 204.746216,166.498917 200.586395,158.091461 
	C199.627670,156.153778 198.555450,154.268066 197.458633,152.403641 
	C192.825058,144.527145 195.300873,137.475464 203.914917,134.094391 
	C210.532944,131.496765 210.518372,131.499924 209.005585,124.481964 
	C208.338348,121.386566 207.871185,118.216652 205.367828,115.912971 
	C201.821747,112.649696 197.475235,112.066673 192.517242,115.450882 
	C181.517609,122.958977 170.788147,130.914917 161.449615,140.470947 
	C146.709869,155.553970 133.860718,172.073486 124.455635,191.085999 
	C122.895378,194.240082 121.395226,197.096115 116.974495,197.401703 
	C113.197433,197.662796 113.594170,201.066727 115.318184,202.965958 
	C118.054787,205.980652 117.680473,208.959625 116.661438,212.231064 
	C107.271294,242.376389 107.899506,272.565277 116.308418,302.769745 
	C117.155853,305.813690 117.425858,308.649261 113.822113,309.675232 
	C110.191162,310.708984 107.750893,308.877167 106.601463,305.318542 
	C102.793991,293.530792 100.621040,281.398163 99.890640,269.083954 
	C98.811287,250.886673 99.899094,232.804138 104.912399,215.155991 
	C105.690941,212.415329 105.214508,210.655640 103.417091,208.448303 
	C99.751625,203.946884 98.331299,198.724075 100.779480,193.051270 
	C103.147690,187.563797 107.609299,184.985184 113.368591,184.769211 
	C115.962296,184.671936 117.238579,183.402847 118.377518,181.391525 
	C131.664780,157.926544 149.031509,137.902802 169.751907,120.735161 
	C172.360931,118.573486 173.785431,116.432503 172.833191,112.666412 
	C171.824387,108.676529 173.467499,105.005898 176.966522,102.656395 
	C188.363068,95.003952 200.509521,88.828331 213.712494,84.937599 
	C217.074936,83.946739 220.650085,83.876549 224.085800,84.891418 
	C227.643356,85.942284 229.572906,88.567345 230.181808,92.107376 
	C230.753464,95.430984 228.738861,97.463219 226.137894,98.909744 
	C223.522949,100.364029 220.870651,101.858170 218.059814,102.827782 
	C214.011734,104.224205 213.401703,106.692116 215.105011,110.164307 
	C217.458160,114.961143 219.385818,119.901878 220.703629,125.087242 
	C222.998276,134.116241 219.793961,139.829117 210.852676,142.706039 
	C209.082581,143.275589 206.285782,143.062408 206.441101,145.827805 
	C206.630936,149.207520 208.260803,152.328384 210.486130,154.767349 
	C212.241760,156.691559 214.161453,154.596588 215.816742,153.698059 
	C222.360687,150.145828 226.427719,151.387527 228.331345,158.512878 
	C233.062241,176.220840 236.750107,194.178146 235.245972,212.643448 
	C234.101288,226.695984 224.742172,234.544662 209.073425,233.814499 
	C196.242004,233.216583 185.679398,226.714203 174.656601,220.426514 
z"/>
<path fill="#ffff" opacity="1.000000" stroke="none" 
	d="
M289.366089,199.358719 
	C289.475739,204.962906 288.686890,210.145752 290.273315,215.210495 
	C292.238251,221.483719 296.099365,224.537186 302.665802,224.762421 
	C316.007599,225.220078 327.398834,220.500504 337.208191,211.643570 
	C338.196136,210.751541 339.110931,209.777817 340.108582,208.897400 
	C341.666992,207.522125 343.380066,207.326401 345.140625,208.486832 
	C346.766144,209.558273 347.801483,210.999237 347.616730,213.063080 
	C347.398376,215.502441 346.342377,217.612854 344.542694,219.177307 
	C331.788940,230.264099 316.953461,236.087921 300.069031,234.472183 
	C287.591736,233.278152 280.473541,224.835846 279.718781,212.418381 
	C278.749908,196.478027 280.789001,180.775330 285.360260,165.592819 
	C287.454559,158.636978 289.805450,152.109528 290.034088,144.603546 
	C290.320068,135.213745 297.638428,130.792557 306.937469,132.915649 
	C312.942535,134.286667 313.678467,133.783051 314.694000,127.607269 
	C316.194000,118.485458 315.781158,117.823235 307.411743,114.004807 
	C292.246368,107.085800 276.212769,104.891701 259.729126,105.065109 
	C255.398193,105.110664 251.067795,105.208710 246.737167,105.284065 
	C243.841843,105.334442 241.960556,104.319969 241.760803,101.061722 
	C241.558090,97.755394 243.003052,96.151581 246.238007,95.720810 
	C255.688919,94.462288 265.153290,94.092148 274.614319,95.375237 
	C278.272034,95.871300 280.412415,95.602776 280.987457,90.994583 
	C281.572418,86.307236 285.616516,84.343590 290.059784,83.783760 
	C293.905670,83.299194 297.730011,83.760269 301.414856,84.930656 
	C308.765717,87.265419 315.599792,90.744392 321.977814,95.024811 
	C325.101898,97.121468 327.625854,99.426582 324.439301,103.963310 
	C321.725555,107.826912 326.169434,109.433144 328.455475,110.380653 
	C337.439117,114.104172 344.274231,120.712555 351.451935,126.801910 
	C367.083679,140.063400 379.916504,155.735565 390.332977,173.391632 
	C391.679169,175.673386 393.167267,177.871445 394.735443,180.337616 
	C398.847443,178.259140 402.367004,175.361404 407.166107,175.399460 
	C413.552277,175.450073 420.476532,181.580353 421.375946,188.429092 
	C422.388062,196.135834 418.859955,201.377563 411.319153,203.190491 
	C409.188019,203.702835 407.131683,204.289368 405.365479,205.628479 
	C401.304871,208.707230 397.863068,207.463242 394.908600,203.980957 
	C392.302002,200.908676 390.564117,197.298309 388.983032,193.607590 
	C378.545074,169.242203 362.816803,148.930618 342.337280,132.137405 
	C338.228088,128.767868 333.711334,128.278259 328.896942,127.898132 
	C327.220245,127.765755 326.446350,128.549026 325.999237,129.979660 
	C325.651764,131.091492 325.273346,132.193848 324.897675,133.296677 
	C320.642944,145.786942 318.836182,146.808167 305.944916,143.955643 
	C304.161102,143.560913 301.929993,142.621201 300.949097,144.605331 
	C299.379608,147.780182 300.516724,151.188171 301.623566,154.303192 
	C302.398529,156.484222 304.402069,155.420700 305.967072,155.130325 
	C307.791412,154.791824 309.605255,154.661697 311.395630,155.280228 
	C314.159302,156.235031 315.358276,158.335037 315.084412,161.086288 
	C314.809814,163.844788 312.800476,165.036880 310.219788,165.197159 
	C306.896576,165.403534 303.565277,165.495407 300.236053,165.583878 
	C296.729370,165.677063 294.976288,167.398453 294.177338,170.875122 
	C292.050049,180.132034 290.434052,189.460175 289.366089,199.358719 
z"/>
<path fill="#ffff" opacity="1.000000" stroke="none" 
	d="
M301.848083,442.079224 
	C267.797363,450.852936 234.511505,448.410706 201.486496,438.787415 
	C198.649826,437.960846 194.408646,437.748535 196.172485,432.943359 
	C197.597626,429.060852 200.515381,428.093811 204.653946,429.409729 
	C224.334549,435.667572 244.509811,438.527008 265.184937,437.759338 
	C298.273041,436.530762 328.075958,425.727570 355.024628,406.803833 
	C381.503876,388.209747 403.168274,365.211609 417.340790,335.876648 
	C426.306580,317.318817 431.492981,297.563293 433.774628,277.032043 
	C437.071014,247.369904 433.217682,218.607346 423.563568,190.486267 
	C422.215729,186.560333 421.356659,182.465546 420.298096,178.441895 
	C419.864380,176.793274 419.440063,174.994766 421.435303,174.098816 
	C423.414642,173.209976 425.202484,174.089706 426.158783,175.793900 
	C428.272827,179.561447 430.439728,183.353836 432.015472,187.360123 
	C441.960785,212.646042 446.523193,238.943619 445.134521,266.051117 
	C443.138062,305.023804 430.555450,340.339661 406.545654,371.272888 
	C385.014740,399.012451 358.299316,420.266937 325.977722,434.277130 
	C318.313690,437.599152 310.262512,439.735809 301.848083,442.079224 
z"/>
<path fill="#ffff" opacity="1.000000" stroke="none" 
	d="
M81.654648,324.219788 
	C63.369068,280.251251 63.194263,236.337006 78.687943,191.840866 
	C85.799255,195.434769 86.743355,197.185379 85.016533,203.684830 
	C79.459244,224.601410 76.961281,245.872055 78.429710,267.459717 
	C79.664993,285.619904 83.898315,303.150879 91.150986,319.909393 
	C94.288345,319.569153 95.964806,317.047638 98.726433,316.688141 
	C105.951271,315.747650 112.523232,320.439240 115.783203,329.161194 
	C117.640442,334.130188 114.896446,340.056610 109.014595,343.779938 
	C99.084541,350.065826 95.650734,349.266388 89.228271,339.259644 
	C86.246857,334.614380 84.021530,329.595123 81.654648,324.219788 
z"/>
<path fill="#ffff" opacity="1.000000" stroke="none" 
	d="
M365.455597,100.507530 
	C385.690674,115.896545 402.160828,134.310486 416.124512,155.029160 
	C417.966370,157.762039 421.123627,160.740753 416.203033,163.716965 
	C412.578583,165.909241 410.194641,165.206207 407.322571,160.508011 
	C391.576782,134.751022 370.907227,113.830933 345.202972,98.074730 
	C319.027588,82.029755 290.810699,72.502487 259.713226,73.024902 
	C257.382996,73.064049 255.050934,72.975014 252.719757,72.977524 
	C248.808502,72.981728 248.204010,70.128304 247.926682,67.224121 
	C247.603760,63.842281 249.918793,62.954681 252.690521,62.867638 
	C265.228271,62.473919 277.626434,63.874691 289.922485,66.129501 
	C317.834412,71.247940 342.492065,83.602669 365.455597,100.507530 
z"/>
<path fill="#ffff" opacity="1.000000" stroke="none" 
	d="
M91.582977,164.644867 
	C110.995987,130.922562 137.780075,105.107018 170.813980,85.546448 
	C173.159821,84.157394 174.655121,84.267113 176.032578,86.825401 
	C177.402435,89.369553 178.568207,91.545876 175.330643,93.616425 
	C168.882706,97.740143 162.315430,101.718262 156.154495,106.242729 
	C128.823273,126.314262 106.970123,150.976410 93.232414,182.323334 
	C92.632973,183.691162 91.968727,185.052383 91.155388,186.299789 
	C89.821640,188.345337 88.206627,190.095612 85.418457,188.833847 
	C82.580956,187.549805 82.294662,185.133560 82.990814,182.504471 
	C84.066338,178.442642 86.296265,174.879974 88.141418,171.155502 
	C89.175934,169.067291 90.320847,167.033783 91.582977,164.644867 
z"/>
<path fill="#ffff" opacity="1.000000" stroke="none" 
	d="
M368.997345,322.980652 
	C361.400055,330.460876 358.521179,330.538452 350.901276,323.452026 
	C348.686310,321.392120 346.273468,320.969452 343.532990,321.746765 
	C340.328156,322.655792 338.302612,321.237305 337.252625,318.405457 
	C336.199554,315.565277 338.260498,314.124542 340.311127,312.875580 
	C345.772583,309.549133 349.645508,309.860107 355.290436,314.566559 
	C357.998199,316.824158 360.011963,318.062775 362.436798,314.258392 
	C364.625824,310.823975 363.333588,308.735565 360.102448,307.829254 
	C351.451874,305.402802 350.050842,297.427368 347.026184,290.884277 
	C345.237305,287.014526 349.488495,285.683990 351.828369,284.548096 
	C354.884674,283.064392 356.944672,285.545685 357.663361,288.288330 
	C358.517761,291.548920 359.399597,294.610962 361.865326,297.106262 
	C363.962494,299.228485 365.804932,300.171082 367.938354,297.258301 
	C369.170654,295.575806 370.616791,294.182068 372.972260,295.079498 
	C375.264709,295.952942 376.152191,297.780975 376.438385,300.112823 
	C377.499969,308.762268 374.673035,316.145996 368.997345,322.980652 
z"/>
<path fill="#ffff" opacity="1.000000" stroke="none" 
	d="
M149.151550,325.175720 
	C139.845749,318.833862 136.944778,310.213501 138.693985,299.770477 
	C139.549576,294.662476 142.365784,293.068115 147.165222,294.813232 
	C151.900681,296.535126 155.657501,293.998688 155.771332,288.713867 
	C155.831406,285.924805 155.682007,283.144043 158.825241,282.079468 
	C161.320297,281.234436 163.369827,282.704834 165.000580,284.450958 
	C167.097229,286.695892 167.858566,289.238953 166.254959,292.197815 
	C162.881317,298.422607 160.579071,305.613129 151.646667,306.164307 
	C148.663055,306.348389 148.918640,308.883118 149.920380,310.701050 
	C151.190704,313.006378 152.267395,316.575836 156.061234,314.755432 
	C159.025818,313.332916 161.538452,310.995667 164.439484,309.407532 
	C169.709030,306.522797 174.129074,308.303589 174.653076,313.344849 
	C174.987595,316.563141 173.998032,318.999451 170.362595,319.395630 
	C167.722656,319.683258 165.618210,320.925812 163.883362,322.806061 
	C159.711044,327.328278 154.950562,328.252563 149.151550,325.175720 
z"/>
<path fill="#ffff" opacity="1.000000" stroke="none" 
	d="
M168.219574,224.746277 
	C167.496613,227.489487 165.839218,229.116943 164.127213,230.721970 
	C162.235565,232.495392 160.216858,232.321533 158.166733,231.142502 
	C156.164764,229.991150 155.795349,228.364914 156.261978,226.055435 
	C157.188446,221.470306 154.829422,218.880325 150.472855,219.231003 
	C142.451721,219.876678 138.010025,216.723145 137.243286,208.978027 
	C136.516113,201.632568 139.039413,195.154831 144.686310,190.243790 
	C147.884674,187.462189 151.726669,186.521683 154.943497,189.999588 
	C157.218277,192.458969 159.018539,191.855301 161.471924,190.704544 
	C165.037964,189.031937 168.613708,188.638641 171.134781,192.606949 
	C173.537811,196.389435 172.361267,199.215179 168.012985,200.319611 
	C167.209747,200.523651 166.190735,200.452805 165.626129,200.929276 
	C161.696594,204.245438 157.641113,204.456955 153.269485,201.862137 
	C152.030716,201.126862 150.683273,201.325394 149.581787,202.368332 
	C148.437271,203.451996 147.580200,204.819489 147.999878,206.357208 
	C148.534531,208.316177 150.479721,208.293274 152.097549,208.582153 
	C158.608810,209.744873 167.324539,218.240799 168.219574,224.746277 
z"/>
<path fill="#ffff" opacity="1.000000" stroke="none" 
	d="
M165.663910,411.421814 
	C167.249359,412.736755 168.333374,413.971893 168.825439,415.638000 
	C169.437576,417.710663 169.173203,419.699188 167.628433,421.189941 
	C165.953690,422.806152 164.486069,421.167480 163.202545,420.347321 
	C139.818665,405.405334 120.249458,386.359314 103.395531,364.434265 
	C102.198380,362.876892 100.009819,360.932831 102.544876,358.885071 
	C104.663506,357.173737 107.380493,357.007538 109.472824,358.847412 
	C112.204391,361.249329 114.724846,363.938293 117.064278,366.731476 
	C131.239105,383.655518 147.178284,398.645203 165.663910,411.421814 
z"/>
<path fill="#ffff" opacity="1.000000" stroke="none" 
	d="
M400.733154,280.919495 
	C402.606110,270.297089 402.873383,260.009430 402.775391,249.705292 
	C402.743286,246.328659 403.711548,244.475616 407.606720,244.553528 
	C411.037445,244.622162 413.166504,245.605728 413.110657,249.253311 
	C412.781403,270.758759 411.340210,292.093781 403.086823,312.345978 
	C401.758087,315.606445 400.088196,317.885712 395.979034,316.205627 
	C392.392914,314.739349 392.535706,312.272095 393.545441,309.277863 
	C396.622925,300.151794 399.493622,290.968231 400.733154,280.919495 
z"/>
<path fill="#ffff" opacity="1.000000" stroke="none" 
	d="
M364.452423,205.498367 
	C363.010315,201.860092 360.826019,201.127792 357.588318,202.668991 
	C355.818756,203.511322 353.858429,204.234985 351.931152,204.402542 
	C348.416870,204.708069 346.320190,202.777359 345.747345,199.307480 
	C345.159119,195.744492 347.098267,194.703369 350.299408,194.441193 
	C352.046570,194.298111 353.853241,193.532669 355.409576,192.652679 
	C360.832916,189.586243 364.839691,189.890961 369.387695,193.971878 
	C375.084167,199.083359 377.637390,208.060501 375.186768,214.361435 
	C373.382782,218.999725 369.917633,220.891068 365.281891,219.767639 
	C361.585449,218.871826 356.473145,222.710480 356.359192,226.959427 
	C356.271759,230.220291 355.028229,232.513580 352.252411,233.716019 
	C350.255554,234.581024 348.740601,232.904922 347.744537,231.404465 
	C346.030640,228.822754 343.602325,225.997543 345.863342,222.803909 
	C350.055237,216.883041 353.943085,210.438248 361.918823,208.789032 
	C363.543671,208.453049 364.755463,207.787369 364.452423,205.498367 
z"/>
<path fill="#ffff" opacity="1.000000" stroke="none" 
	d="
M376.994568,356.973267 
	C369.269409,366.636505 360.715393,374.992462 351.757568,382.970062 
	C350.032593,384.506287 348.670197,384.671356 347.052063,383.074036 
	C345.207001,381.252686 343.367279,379.329559 345.276947,376.620972 
	C346.312836,375.151703 347.773468,373.960815 349.130463,372.742279 
	C362.734161,360.526703 374.356628,346.722809 383.050812,330.561371 
	C384.406708,328.040863 385.626434,325.018707 389.353729,327.008209 
	C392.808014,328.851959 393.069702,332.011658 391.610565,335.187256 
	C388.537994,341.874268 384.137848,347.751038 379.769989,353.627716 
	C378.977325,354.694153 378.073090,355.677673 376.994568,356.973267 
z"/>
<path fill="#ffff" opacity="1.000000" stroke="none" 
	d="
M416.949768,330.791382 
	C411.947968,339.654144 407.849670,341.823151 401.597534,339.149719 
	C396.665649,337.040863 394.923737,333.456421 396.682129,328.317993 
	C398.350372,323.442841 400.541046,318.778259 403.079376,314.276489 
	C405.899506,309.274841 409.709503,307.462372 414.586456,308.965179 
	C418.769684,310.254242 421.776031,315.773071 420.897125,320.750916 
	C420.284149,324.222534 418.926086,327.436981 416.949768,330.791382 
z"/>
<path fill="#ffff" opacity="1.000000" stroke="none" 
	d="
M210.424301,69.230804 
	C215.988647,67.873016 221.154953,66.600510 226.344269,65.429985 
	C228.701996,64.898170 230.726837,65.282410 231.264465,68.146606 
	C231.753143,70.750076 231.894287,73.168892 228.497467,74.009827 
	C214.420868,77.494690 200.593826,81.698532 187.628952,88.358505 
	C186.126495,89.130302 184.400223,89.306984 184.052200,87.295006 
	C183.551224,84.398842 181.499023,81.003288 185.388763,78.800095 
	C191.503815,75.336418 198.153778,73.148445 204.777466,70.918938 
	C206.509171,70.336060 208.281815,69.874817 210.424301,69.230804 
z"/>
</svg>